<?xml version="1.0" encoding="UTF-8" standalone="no"?>
<!DOCTYPE svg PUBLIC "-//W3C//DTD SVG 1.1//EN"
 "http://www.w3.org/Graphics/SVG/1.1/DTD/svg11.dtd">
<!-- Generated by graphviz version 2.40.1 (0)
 -->
<!-- Title: snakemake_dag Pages: 1 -->
<svg width="706pt" height="332pt"
 viewBox="0.00 0.00 706.00 332.00" xmlns="http://www.w3.org/2000/svg" xmlns:xlink="http://www.w3.org/1999/xlink">
<g id="graph0" class="graph" transform="scale(1 1) rotate(0) translate(4 328)">
<title>snakemake_dag</title>
<polygon fill="#ffffff" stroke="transparent" points="-4,4 -4,-328 702,-328 702,4 -4,4"/>
<!-- 0 -->
<g id="node1" class="node">
<title>0</title>
<path fill="none" stroke="#d85656" stroke-width="2" stroke-dasharray="5,2" d="M363,-36C363,-36 333,-36 333,-36 327,-36 321,-30 321,-24 321,-24 321,-12 321,-12 321,-6 327,0 333,0 333,0 363,0 363,0 369,0 375,-6 375,-12 375,-12 375,-24 375,-24 375,-30 369,-36 363,-36"/>
<text text-anchor="middle" x="348" y="-15.5" font-family="sans" font-size="10.00" fill="#000000">all</text>
</g>
<!-- 1 -->
<g id="node2" class="node">
<title>1</title>
<path fill="none" stroke="#56d88a" stroke-width="2" stroke-dasharray="5,2" d="M382.5,-108C382.5,-108 313.5,-108 313.5,-108 307.5,-108 301.5,-102 301.5,-96 301.5,-96 301.5,-84 301.5,-84 301.5,-78 307.5,-72 313.5,-72 313.5,-72 382.5,-72 382.5,-72 388.5,-72 394.5,-78 394.5,-84 394.5,-84 394.5,-96 394.5,-96 394.5,-102 388.5,-108 382.5,-108"/>
<text text-anchor="middle" x="348" y="-87.5" font-family="sans" font-size="10.00" fill="#000000">make_SNP_plot</text>
</g>
<!-- 1&#45;&gt;0 -->
<g id="edge1" class="edge">
<title>1&#45;&gt;0</title>
<path fill="none" stroke="#c0c0c0" stroke-width="2" d="M348,-71.8314C348,-64.131 348,-54.9743 348,-46.4166"/>
<polygon fill="#c0c0c0" stroke="#c0c0c0" stroke-width="2" points="351.5001,-46.4132 348,-36.4133 344.5001,-46.4133 351.5001,-46.4132"/>
</g>
<!-- 2 -->
<g id="node3" class="node">
<title>2</title>
<path fill="none" stroke="#d8bc56" stroke-width="2" stroke-dasharray="5,2" d="M327.5,-180C327.5,-180 292.5,-180 292.5,-180 286.5,-180 280.5,-174 280.5,-168 280.5,-168 280.5,-156 280.5,-156 280.5,-150 286.5,-144 292.5,-144 292.5,-144 327.5,-144 327.5,-144 333.5,-144 339.5,-150 339.5,-156 339.5,-156 339.5,-168 339.5,-168 339.5,-174 333.5,-180 327.5,-180"/>
<text text-anchor="middle" x="310" y="-159.5" font-family="sans" font-size="10.00" fill="#000000">vcf_filter</text>
</g>
<!-- 2&#45;&gt;1 -->
<g id="edge2" class="edge">
<title>2&#45;&gt;1</title>
<path fill="none" stroke="#c0c0c0" stroke-width="2" d="M319.589,-143.8314C323.8317,-135.7925 328.9121,-126.1666 333.596,-117.2918"/>
<polygon fill="#c0c0c0" stroke="#c0c0c0" stroke-width="2" points="336.7096,-118.8908 338.2819,-108.4133 330.5189,-115.6235 336.7096,-118.8908"/>
</g>
<!-- 3 -->
<g id="node4" class="node">
<title>3</title>
<path fill="none" stroke="#56c1d8" stroke-width="2" stroke-dasharray="5,2" d="M263,-252C263,-252 207,-252 207,-252 201,-252 195,-246 195,-240 195,-240 195,-228 195,-228 195,-222 201,-216 207,-216 207,-216 263,-216 263,-216 269,-216 275,-222 275,-228 275,-228 275,-240 275,-240 275,-246 269,-252 263,-252"/>
<text text-anchor="middle" x="235" y="-231.5" font-family="sans" font-size="10.00" fill="#000000">vcf_annotate</text>
</g>
<!-- 3&#45;&gt;2 -->
<g id="edge4" class="edge">
<title>3&#45;&gt;2</title>
<path fill="none" stroke="#c0c0c0" stroke-width="2" d="M253.9257,-215.8314C262.9857,-207.1337 273.9809,-196.5783 283.8265,-187.1265"/>
<polygon fill="#c0c0c0" stroke="#c0c0c0" stroke-width="2" points="286.2904,-189.613 291.0804,-180.1628 281.4426,-184.5633 286.2904,-189.613"/>
</g>
<!-- 4 -->
<g id="node5" class="node">
<title>4</title>
<path fill="none" stroke="#88d856" stroke-width="2" stroke-dasharray="5,2" d="M328,-324C328,-324 12,-324 12,-324 6,-324 0,-318 0,-312 0,-312 0,-300 0,-300 0,-294 6,-288 12,-288 12,-288 328,-288 328,-288 334,-288 340,-294 340,-300 340,-300 340,-312 340,-312 340,-318 334,-324 328,-324"/>
<text text-anchor="middle" x="170" y="-309" font-family="sans" font-size="10.00" fill="#000000">bcftools_view</text>
<text text-anchor="middle" x="170" y="-298" font-family="sans" font-size="10.00" fill="#000000">sample: HG00599&#45;ONT&#45;hg38&#45;R9&#45;LSK110&#45;guppy&#45;sup&#45;5hmc_5mc_cg</text>
</g>
<!-- 4&#45;&gt;3 -->
<g id="edge5" class="edge">
<title>4&#45;&gt;3</title>
<path fill="none" stroke="#c0c0c0" stroke-width="2" d="M186.4022,-287.8314C194.0415,-279.3694 203.2683,-269.1489 211.6207,-259.8971"/>
<polygon fill="#c0c0c0" stroke="#c0c0c0" stroke-width="2" points="214.2738,-262.1813 218.3769,-252.4133 209.0779,-257.4906 214.2738,-262.1813"/>
</g>
<!-- 5 -->
<g id="node6" class="node">
<title>5</title>
<path fill="none" stroke="#d8bc56" stroke-width="2" stroke-dasharray="5,2" d="M442.5,-180C442.5,-180 407.5,-180 407.5,-180 401.5,-180 395.5,-174 395.5,-168 395.5,-168 395.5,-156 395.5,-156 395.5,-150 401.5,-144 407.5,-144 407.5,-144 442.5,-144 442.5,-144 448.5,-144 454.5,-150 454.5,-156 454.5,-156 454.5,-168 454.5,-168 454.5,-174 448.5,-180 442.5,-180"/>
<text text-anchor="middle" x="425" y="-159.5" font-family="sans" font-size="10.00" fill="#000000">vcf_filter</text>
</g>
<!-- 5&#45;&gt;1 -->
<g id="edge3" class="edge">
<title>5&#45;&gt;1</title>
<path fill="none" stroke="#c0c0c0" stroke-width="2" d="M405.5696,-143.8314C396.268,-135.1337 384.9796,-124.5783 374.8714,-115.1265"/>
<polygon fill="#c0c0c0" stroke="#c0c0c0" stroke-width="2" points="377.1189,-112.4363 367.4241,-108.1628 372.3379,-117.5493 377.1189,-112.4363"/>
</g>
<!-- 6 -->
<g id="node7" class="node">
<title>6</title>
<path fill="none" stroke="#56c1d8" stroke-width="2" stroke-dasharray="5,2" d="M491,-252C491,-252 435,-252 435,-252 429,-252 423,-246 423,-240 423,-240 423,-228 423,-228 423,-222 429,-216 435,-216 435,-216 491,-216 491,-216 497,-216 503,-222 503,-228 503,-228 503,-240 503,-240 503,-246 497,-252 491,-252"/>
<text text-anchor="middle" x="463" y="-231.5" font-family="sans" font-size="10.00" fill="#000000">vcf_annotate</text>
</g>
<!-- 6&#45;&gt;5 -->
<g id="edge6" class="edge">
<title>6&#45;&gt;5</title>
<path fill="none" stroke="#c0c0c0" stroke-width="2" d="M453.411,-215.8314C449.1683,-207.7925 444.0879,-198.1666 439.404,-189.2918"/>
<polygon fill="#c0c0c0" stroke="#c0c0c0" stroke-width="2" points="442.4811,-187.6235 434.7181,-180.4133 436.2904,-190.8908 442.4811,-187.6235"/>
</g>
<!-- 7 -->
<g id="node8" class="node">
<title>7</title>
<path fill="none" stroke="#88d856" stroke-width="2" stroke-dasharray="5,2" d="M686,-324C686,-324 370,-324 370,-324 364,-324 358,-318 358,-312 358,-312 358,-300 358,-300 358,-294 364,-288 370,-288 370,-288 686,-288 686,-288 692,-288 698,-294 698,-300 698,-300 698,-312 698,-312 698,-318 692,-324 686,-324"/>
<text text-anchor="middle" x="528" y="-309" font-family="sans" font-size="10.00" fill="#000000">bcftools_view</text>
<text text-anchor="middle" x="528" y="-298" font-family="sans" font-size="10.00" fill="#000000">sample: HG02051&#45;ONT&#45;hg38&#45;R9&#45;LSK110&#45;guppy&#45;sup&#45;5hmc_5mc_cg</text>
</g>
<!-- 7&#45;&gt;6 -->
<g id="edge7" class="edge">
<title>7&#45;&gt;6</title>
<path fill="none" stroke="#c0c0c0" stroke-width="2" d="M511.5978,-287.8314C503.9585,-279.3694 494.7317,-269.1489 486.3793,-259.8971"/>
<polygon fill="#c0c0c0" stroke="#c0c0c0" stroke-width="2" points="488.9221,-257.4906 479.6231,-252.4133 483.7262,-262.1813 488.9221,-257.4906"/>
</g>
</g>
</svg>
