<?xml version="1.0" encoding="UTF-8" standalone="no"?>
<!DOCTYPE svg PUBLIC "-//W3C//DTD SVG 1.1//EN"
 "http://www.w3.org/Graphics/SVG/1.1/DTD/svg11.dtd">
<!-- Generated by graphviz version 2.40.1 (0)
 -->
<!-- Title: snakemake_dag Pages: 1 -->
<svg width="706pt" height="188pt"
 viewBox="0.00 0.00 706.00 188.00" xmlns="http://www.w3.org/2000/svg" xmlns:xlink="http://www.w3.org/1999/xlink">
<g id="graph0" class="graph" transform="scale(1 1) rotate(0) translate(4 184)">
<title>snakemake_dag</title>
<polygon fill="#ffffff" stroke="transparent" points="-4,4 -4,-184 702,-184 702,4 -4,4"/>
<!-- 0 -->
<g id="node1" class="node">
<title>0</title>
<path fill="none" stroke="#d85656" stroke-width="2" stroke-dasharray="5,2" d="M364,-36C364,-36 334,-36 334,-36 328,-36 322,-30 322,-24 322,-24 322,-12 322,-12 322,-6 328,0 334,0 334,0 364,0 364,0 370,0 376,-6 376,-12 376,-12 376,-24 376,-24 376,-30 370,-36 364,-36"/>
<text text-anchor="middle" x="349" y="-15.5" font-family="sans" font-size="10.00" fill="#000000">all</text>
</g>
<!-- 1 -->
<g id="node2" class="node">
<title>1</title>
<path fill="none" stroke="#56c1d8" stroke-width="2" stroke-dasharray="5,2" d="M383.5,-108C383.5,-108 314.5,-108 314.5,-108 308.5,-108 302.5,-102 302.5,-96 302.5,-96 302.5,-84 302.5,-84 302.5,-78 308.5,-72 314.5,-72 314.5,-72 383.5,-72 383.5,-72 389.5,-72 395.5,-78 395.5,-84 395.5,-84 395.5,-96 395.5,-96 395.5,-102 389.5,-108 383.5,-108"/>
<text text-anchor="middle" x="349" y="-87.5" font-family="sans" font-size="10.00" fill="#000000">make_SNP_plot</text>
</g>
<!-- 1&#45;&gt;0 -->
<g id="edge1" class="edge">
<title>1&#45;&gt;0</title>
<path fill="none" stroke="#c0c0c0" stroke-width="2" d="M349,-71.8314C349,-64.131 349,-54.9743 349,-46.4166"/>
<polygon fill="#c0c0c0" stroke="#c0c0c0" stroke-width="2" points="352.5001,-46.4132 349,-36.4133 345.5001,-46.4133 352.5001,-46.4132"/>
</g>
<!-- 2 -->
<g id="node3" class="node">
<title>2</title>
<path fill="none" stroke="#56d88a" stroke-width="2" stroke-dasharray="5,2" d="M328,-180C328,-180 12,-180 12,-180 6,-180 0,-174 0,-168 0,-168 0,-156 0,-156 0,-150 6,-144 12,-144 12,-144 328,-144 328,-144 334,-144 340,-150 340,-156 340,-156 340,-168 340,-168 340,-174 334,-180 328,-180"/>
<text text-anchor="middle" x="170" y="-165" font-family="sans" font-size="10.00" fill="#000000">vcf_filter</text>
<text text-anchor="middle" x="170" y="-154" font-family="sans" font-size="10.00" fill="#000000">sample: HG00599&#45;ONT&#45;hg38&#45;R9&#45;LSK110&#45;guppy&#45;sup&#45;5hmc_5mc_cg</text>
</g>
<!-- 2&#45;&gt;1 -->
<g id="edge2" class="edge">
<title>2&#45;&gt;1</title>
<path fill="none" stroke="#c0c0c0" stroke-width="2" d="M215.1693,-143.8314C239.3223,-134.1162 269.2378,-122.0831 294.6556,-111.8592"/>
<polygon fill="#c0c0c0" stroke="#c0c0c0" stroke-width="2" points="296.1841,-115.017 304.1556,-108.038 293.5718,-108.5227 296.1841,-115.017"/>
</g>
<!-- 3 -->
<g id="node4" class="node">
<title>3</title>
<path fill="none" stroke="#56d88a" stroke-width="2" stroke-dasharray="5,2" d="M686,-180C686,-180 370,-180 370,-180 364,-180 358,-174 358,-168 358,-168 358,-156 358,-156 358,-150 364,-144 370,-144 370,-144 686,-144 686,-144 692,-144 698,-150 698,-156 698,-156 698,-168 698,-168 698,-174 692,-180 686,-180"/>
<text text-anchor="middle" x="528" y="-165" font-family="sans" font-size="10.00" fill="#000000">vcf_filter</text>
<text text-anchor="middle" x="528" y="-154" font-family="sans" font-size="10.00" fill="#000000">sample: HG02051&#45;ONT&#45;hg38&#45;R9&#45;LSK110&#45;guppy&#45;sup&#45;5hmc_5mc_cg</text>
</g>
<!-- 3&#45;&gt;1 -->
<g id="edge3" class="edge">
<title>3&#45;&gt;1</title>
<path fill="none" stroke="#c0c0c0" stroke-width="2" d="M482.8307,-143.8314C458.6777,-134.1162 428.7622,-122.0831 403.3444,-111.8592"/>
<polygon fill="#c0c0c0" stroke="#c0c0c0" stroke-width="2" points="404.4282,-108.5227 393.8444,-108.038 401.8159,-115.017 404.4282,-108.5227"/>
</g>
</g>
</svg>
