<?xml version="1.0" encoding="UTF-8" standalone="no"?>
<!DOCTYPE svg PUBLIC "-//W3C//DTD SVG 1.1//EN"
 "http://www.w3.org/Graphics/SVG/1.1/DTD/svg11.dtd">
<!-- Generated by graphviz version 2.40.1 (0)
 -->
<!-- Title: snakemake_dag Pages: 1 -->
<svg width="101pt" height="116pt"
 viewBox="0.00 0.00 101.00 116.00" xmlns="http://www.w3.org/2000/svg" xmlns:xlink="http://www.w3.org/1999/xlink">
<g id="graph0" class="graph" transform="scale(1 1) rotate(0) translate(4 112)">
<title>snakemake_dag</title>
<polygon fill="#ffffff" stroke="transparent" points="-4,4 -4,-112 97,-112 97,4 -4,4"/>
<!-- 0 -->
<g id="node1" class="node">
<title>0</title>
<path fill="none" stroke="#56d88a" stroke-width="2" d="M61.5,-36C61.5,-36 31.5,-36 31.5,-36 25.5,-36 19.5,-30 19.5,-24 19.5,-24 19.5,-12 19.5,-12 19.5,-6 25.5,0 31.5,0 31.5,0 61.5,0 61.5,0 67.5,0 73.5,-6 73.5,-12 73.5,-12 73.5,-24 73.5,-24 73.5,-30 67.5,-36 61.5,-36"/>
<text text-anchor="middle" x="46.5" y="-15.5" font-family="sans" font-size="10.00" fill="#000000">all</text>
</g>
<!-- 1 -->
<g id="node2" class="node">
<title>1</title>
<path fill="none" stroke="#88d856" stroke-width="2" d="M81,-108C81,-108 12,-108 12,-108 6,-108 0,-102 0,-96 0,-96 0,-84 0,-84 0,-78 6,-72 12,-72 12,-72 81,-72 81,-72 87,-72 93,-78 93,-84 93,-84 93,-96 93,-96 93,-102 87,-108 81,-108"/>
<text text-anchor="middle" x="46.5" y="-87.5" font-family="sans" font-size="10.00" fill="#000000">make_SNP_plot</text>
</g>
<!-- 1&#45;&gt;0 -->
<g id="edge1" class="edge">
<title>1&#45;&gt;0</title>
<path fill="none" stroke="#c0c0c0" stroke-width="2" d="M46.5,-71.8314C46.5,-64.131 46.5,-54.9743 46.5,-46.4166"/>
<polygon fill="#c0c0c0" stroke="#c0c0c0" stroke-width="2" points="50.0001,-46.4132 46.5,-36.4133 43.0001,-46.4133 50.0001,-46.4132"/>
</g>
</g>
</svg>
