<?xml version="1.0" encoding="UTF-8" standalone="no"?>
<!DOCTYPE svg PUBLIC "-//W3C//DTD SVG 1.1//EN"
 "http://www.w3.org/Graphics/SVG/1.1/DTD/svg11.dtd">
<!-- Generated by graphviz version 2.40.1 (0)
 -->
<!-- Title: snakemake_dag Pages: 1 -->
<svg width="971pt" height="332pt"
 viewBox="0.00 0.00 970.50 332.00" xmlns="http://www.w3.org/2000/svg" xmlns:xlink="http://www.w3.org/1999/xlink">
<g id="graph0" class="graph" transform="scale(1 1) rotate(0) translate(4 328)">
<title>snakemake_dag</title>
<polygon fill="#ffffff" stroke="transparent" points="-4,4 -4,-328 966.5,-328 966.5,4 -4,4"/>
<!-- 0 -->
<g id="node1" class="node">
<title>0</title>
<path fill="none" stroke="#59d856" stroke-width="2" d="M472.5,-36C472.5,-36 442.5,-36 442.5,-36 436.5,-36 430.5,-30 430.5,-24 430.5,-24 430.5,-12 430.5,-12 430.5,-6 436.5,0 442.5,0 442.5,0 472.5,0 472.5,0 478.5,0 484.5,-6 484.5,-12 484.5,-12 484.5,-24 484.5,-24 484.5,-30 478.5,-36 472.5,-36"/>
<text text-anchor="middle" x="457.5" y="-15.5" font-family="sans" font-size="10.00" fill="#000000">all</text>
</g>
<!-- 1 -->
<g id="node2" class="node">
<title>1</title>
<path fill="none" stroke="#56a9d8" stroke-width="2" d="M498.5,-108C498.5,-108 416.5,-108 416.5,-108 410.5,-108 404.5,-102 404.5,-96 404.5,-96 404.5,-84 404.5,-84 404.5,-78 410.5,-72 416.5,-72 416.5,-72 498.5,-72 498.5,-72 504.5,-72 510.5,-78 510.5,-84 510.5,-84 510.5,-96 510.5,-96 510.5,-102 504.5,-108 498.5,-108"/>
<text text-anchor="middle" x="457.5" y="-87.5" font-family="sans" font-size="10.00" fill="#000000">get_plot_files_rule</text>
</g>
<!-- 1&#45;&gt;0 -->
<g id="edge1" class="edge">
<title>1&#45;&gt;0</title>
<path fill="none" stroke="#c0c0c0" stroke-width="2" d="M457.5,-71.8314C457.5,-64.131 457.5,-54.9743 457.5,-46.4166"/>
<polygon fill="#c0c0c0" stroke="#c0c0c0" stroke-width="2" points="461.0001,-46.4132 457.5,-36.4133 454.0001,-46.4133 461.0001,-46.4132"/>
</g>
<!-- 2 -->
<g id="node3" class="node">
<title>2</title>
<path fill="none" stroke="#56d8a9" stroke-width="2" d="M335,-180C335,-180 300,-180 300,-180 294,-180 288,-174 288,-168 288,-168 288,-156 288,-156 288,-150 294,-144 300,-144 300,-144 335,-144 335,-144 341,-144 347,-150 347,-156 347,-156 347,-168 347,-168 347,-174 341,-180 335,-180"/>
<text text-anchor="middle" x="317.5" y="-159.5" font-family="sans" font-size="10.00" fill="#000000">vcf_filter</text>
</g>
<!-- 2&#45;&gt;1 -->
<g id="edge2" class="edge">
<title>2&#45;&gt;1</title>
<path fill="none" stroke="#c0c0c0" stroke-width="2" d="M347.1904,-146.7307C366.434,-136.834 391.843,-123.7665 413.4238,-112.6678"/>
<polygon fill="#c0c0c0" stroke="#c0c0c0" stroke-width="2" points="415.1171,-115.7327 422.4092,-108.0467 411.9156,-109.5077 415.1171,-115.7327"/>
</g>
<!-- 3 -->
<g id="node4" class="node">
<title>3</title>
<path fill="none" stroke="#afd856" stroke-width="2" d="M281.5,-252C281.5,-252 225.5,-252 225.5,-252 219.5,-252 213.5,-246 213.5,-240 213.5,-240 213.5,-228 213.5,-228 213.5,-222 219.5,-216 225.5,-216 225.5,-216 281.5,-216 281.5,-216 287.5,-216 293.5,-222 293.5,-228 293.5,-228 293.5,-240 293.5,-240 293.5,-246 287.5,-252 281.5,-252"/>
<text text-anchor="middle" x="253.5" y="-231.5" font-family="sans" font-size="10.00" fill="#000000">vcf_annotate</text>
</g>
<!-- 3&#45;&gt;2 -->
<g id="edge5" class="edge">
<title>3&#45;&gt;2</title>
<path fill="none" stroke="#c0c0c0" stroke-width="2" d="M269.6499,-215.8314C277.1717,-207.3694 286.2565,-197.1489 294.4804,-187.8971"/>
<polygon fill="#c0c0c0" stroke="#c0c0c0" stroke-width="2" points="297.1049,-190.2127 301.1327,-180.4133 291.873,-185.5621 297.1049,-190.2127"/>
</g>
<!-- 4 -->
<g id="node5" class="node">
<title>4</title>
<path fill="none" stroke="#d85656" stroke-width="2" d="M281,-324C281,-324 12,-324 12,-324 6,-324 0,-318 0,-312 0,-312 0,-300 0,-300 0,-294 6,-288 12,-288 12,-288 281,-288 281,-288 287,-288 293,-294 293,-300 293,-300 293,-312 293,-312 293,-318 287,-324 281,-324"/>
<text text-anchor="middle" x="146.5" y="-309" font-family="sans" font-size="10.00" fill="#000000">bcftools_view</text>
<text text-anchor="middle" x="146.5" y="-298" font-family="sans" font-size="10.00" fill="#000000">sample: GM18876&#45;ONT&#45;hg38&#45;R9&#45;LSK110&#45;guppy&#45;sup&#45;5mC</text>
</g>
<!-- 4&#45;&gt;3 -->
<g id="edge6" class="edge">
<title>4&#45;&gt;3</title>
<path fill="none" stroke="#c0c0c0" stroke-width="2" d="M173.5006,-287.8314C186.9331,-278.7927 203.3473,-267.7476 217.8039,-258.0198"/>
<polygon fill="#c0c0c0" stroke="#c0c0c0" stroke-width="2" points="220.1654,-260.6494 226.508,-252.1628 216.2575,-254.8418 220.1654,-260.6494"/>
</g>
<!-- 5 -->
<g id="node6" class="node">
<title>5</title>
<path fill="none" stroke="#56d8a9" stroke-width="2" d="M475,-180C475,-180 440,-180 440,-180 434,-180 428,-174 428,-168 428,-168 428,-156 428,-156 428,-150 434,-144 440,-144 440,-144 475,-144 475,-144 481,-144 487,-150 487,-156 487,-156 487,-168 487,-168 487,-174 481,-180 475,-180"/>
<text text-anchor="middle" x="457.5" y="-159.5" font-family="sans" font-size="10.00" fill="#000000">vcf_filter</text>
</g>
<!-- 5&#45;&gt;1 -->
<g id="edge3" class="edge">
<title>5&#45;&gt;1</title>
<path fill="none" stroke="#c0c0c0" stroke-width="2" d="M457.5,-143.8314C457.5,-136.131 457.5,-126.9743 457.5,-118.4166"/>
<polygon fill="#c0c0c0" stroke="#c0c0c0" stroke-width="2" points="461.0001,-118.4132 457.5,-108.4133 454.0001,-118.4133 461.0001,-118.4132"/>
</g>
<!-- 6 -->
<g id="node7" class="node">
<title>6</title>
<path fill="none" stroke="#afd856" stroke-width="2" d="M485.5,-252C485.5,-252 429.5,-252 429.5,-252 423.5,-252 417.5,-246 417.5,-240 417.5,-240 417.5,-228 417.5,-228 417.5,-222 423.5,-216 429.5,-216 429.5,-216 485.5,-216 485.5,-216 491.5,-216 497.5,-222 497.5,-228 497.5,-228 497.5,-240 497.5,-240 497.5,-246 491.5,-252 485.5,-252"/>
<text text-anchor="middle" x="457.5" y="-231.5" font-family="sans" font-size="10.00" fill="#000000">vcf_annotate</text>
</g>
<!-- 6&#45;&gt;5 -->
<g id="edge7" class="edge">
<title>6&#45;&gt;5</title>
<path fill="none" stroke="#c0c0c0" stroke-width="2" d="M457.5,-215.8314C457.5,-208.131 457.5,-198.9743 457.5,-190.4166"/>
<polygon fill="#c0c0c0" stroke="#c0c0c0" stroke-width="2" points="461.0001,-190.4132 457.5,-180.4133 454.0001,-190.4133 461.0001,-190.4132"/>
</g>
<!-- 7 -->
<g id="node8" class="node">
<title>7</title>
<path fill="none" stroke="#d85656" stroke-width="2" d="M592,-324C592,-324 323,-324 323,-324 317,-324 311,-318 311,-312 311,-312 311,-300 311,-300 311,-294 317,-288 323,-288 323,-288 592,-288 592,-288 598,-288 604,-294 604,-300 604,-300 604,-312 604,-312 604,-318 598,-324 592,-324"/>
<text text-anchor="middle" x="457.5" y="-309" font-family="sans" font-size="10.00" fill="#000000">bcftools_view</text>
<text text-anchor="middle" x="457.5" y="-298" font-family="sans" font-size="10.00" fill="#000000">sample: HG02409&#45;ONT&#45;hg38&#45;R9&#45;LSK110&#45;guppy&#45;sup&#45;5mC</text>
</g>
<!-- 7&#45;&gt;6 -->
<g id="edge8" class="edge">
<title>7&#45;&gt;6</title>
<path fill="none" stroke="#c0c0c0" stroke-width="2" d="M457.5,-287.8314C457.5,-280.131 457.5,-270.9743 457.5,-262.4166"/>
<polygon fill="#c0c0c0" stroke="#c0c0c0" stroke-width="2" points="461.0001,-262.4132 457.5,-252.4133 454.0001,-262.4133 461.0001,-262.4132"/>
</g>
<!-- 8 -->
<g id="node9" class="node">
<title>8</title>
<path fill="none" stroke="#56d8a9" stroke-width="2" d="M621,-180C621,-180 586,-180 586,-180 580,-180 574,-174 574,-168 574,-168 574,-156 574,-156 574,-150 580,-144 586,-144 586,-144 621,-144 621,-144 627,-144 633,-150 633,-156 633,-156 633,-168 633,-168 633,-174 627,-180 621,-180"/>
<text text-anchor="middle" x="603.5" y="-159.5" font-family="sans" font-size="10.00" fill="#000000">vcf_filter</text>
</g>
<!-- 8&#45;&gt;1 -->
<g id="edge4" class="edge">
<title>8&#45;&gt;1</title>
<path fill="none" stroke="#c0c0c0" stroke-width="2" d="M573.9547,-147.4297C553.7423,-137.4619 526.5416,-124.0479 503.5118,-112.6907"/>
<polygon fill="#c0c0c0" stroke="#c0c0c0" stroke-width="2" points="504.7762,-109.4119 494.2595,-108.128 501.6802,-115.69 504.7762,-109.4119"/>
</g>
<!-- 9 -->
<g id="node10" class="node">
<title>9</title>
<path fill="none" stroke="#afd856" stroke-width="2" d="M701.5,-252C701.5,-252 645.5,-252 645.5,-252 639.5,-252 633.5,-246 633.5,-240 633.5,-240 633.5,-228 633.5,-228 633.5,-222 639.5,-216 645.5,-216 645.5,-216 701.5,-216 701.5,-216 707.5,-216 713.5,-222 713.5,-228 713.5,-228 713.5,-240 713.5,-240 713.5,-246 707.5,-252 701.5,-252"/>
<text text-anchor="middle" x="673.5" y="-231.5" font-family="sans" font-size="10.00" fill="#000000">vcf_annotate</text>
</g>
<!-- 9&#45;&gt;8 -->
<g id="edge9" class="edge">
<title>9&#45;&gt;8</title>
<path fill="none" stroke="#c0c0c0" stroke-width="2" d="M655.836,-215.8314C647.5268,-207.2848 637.4736,-196.9443 628.4082,-187.6198"/>
<polygon fill="#c0c0c0" stroke="#c0c0c0" stroke-width="2" points="630.8821,-185.1435 621.4018,-180.4133 625.8631,-190.023 630.8821,-185.1435"/>
</g>
<!-- 10 -->
<g id="node11" class="node">
<title>10</title>
<path fill="none" stroke="#d85656" stroke-width="2" d="M950.5,-324C950.5,-324 634.5,-324 634.5,-324 628.5,-324 622.5,-318 622.5,-312 622.5,-312 622.5,-300 622.5,-300 622.5,-294 628.5,-288 634.5,-288 634.5,-288 950.5,-288 950.5,-288 956.5,-288 962.5,-294 962.5,-300 962.5,-300 962.5,-312 962.5,-312 962.5,-318 956.5,-324 950.5,-324"/>
<text text-anchor="middle" x="792.5" y="-309" font-family="sans" font-size="10.00" fill="#000000">bcftools_view</text>
<text text-anchor="middle" x="792.5" y="-298" font-family="sans" font-size="10.00" fill="#000000">sample: HG03861&#45;ONT&#45;hg38&#45;R9&#45;LSK110&#45;guppy&#45;sup&#45;5hmc_5mc_cg</text>
</g>
<!-- 10&#45;&gt;9 -->
<g id="edge10" class="edge">
<title>10&#45;&gt;9</title>
<path fill="none" stroke="#c0c0c0" stroke-width="2" d="M762.4713,-287.8314C747.2504,-278.6221 728.5872,-267.3301 712.2917,-257.4706"/>
<polygon fill="#c0c0c0" stroke="#c0c0c0" stroke-width="2" points="713.8868,-254.345 703.5191,-252.1628 710.2631,-260.3341 713.8868,-254.345"/>
</g>
</g>
</svg>
