<?xml version="1.0" encoding="UTF-8" standalone="no"?>
<!DOCTYPE svg PUBLIC "-//W3C//DTD SVG 1.1//EN"
 "http://www.w3.org/Graphics/SVG/1.1/DTD/svg11.dtd">
<!-- Generated by graphviz version 2.40.1 (0)
 -->
<!-- Title: snakemake_dag Pages: 1 -->
<svg width="971pt" height="404pt"
 viewBox="0.00 0.00 970.50 404.00" xmlns="http://www.w3.org/2000/svg" xmlns:xlink="http://www.w3.org/1999/xlink">
<g id="graph0" class="graph" transform="scale(1 1) rotate(0) translate(4 400)">
<title>snakemake_dag</title>
<polygon fill="#ffffff" stroke="transparent" points="-4,4 -4,-400 966.5,-400 966.5,4 -4,4"/>
<!-- 0 -->
<g id="node1" class="node">
<title>0</title>
<path fill="none" stroke="#56a9d8" stroke-width="2" d="M472.5,-36C472.5,-36 442.5,-36 442.5,-36 436.5,-36 430.5,-30 430.5,-24 430.5,-24 430.5,-12 430.5,-12 430.5,-6 436.5,0 442.5,0 442.5,0 472.5,0 472.5,0 478.5,0 484.5,-6 484.5,-12 484.5,-12 484.5,-24 484.5,-24 484.5,-30 478.5,-36 472.5,-36"/>
<text text-anchor="middle" x="457.5" y="-15.5" font-family="sans" font-size="10.00" fill="#000000">all</text>
</g>
<!-- 1 -->
<g id="node2" class="node">
<title>1</title>
<path fill="none" stroke="#d85656" stroke-width="2" d="M492,-108C492,-108 423,-108 423,-108 417,-108 411,-102 411,-96 411,-96 411,-84 411,-84 411,-78 417,-72 423,-72 423,-72 492,-72 492,-72 498,-72 504,-78 504,-84 504,-84 504,-96 504,-96 504,-102 498,-108 492,-108"/>
<text text-anchor="middle" x="457.5" y="-87.5" font-family="sans" font-size="10.00" fill="#000000">make_SNP_plot</text>
</g>
<!-- 1&#45;&gt;0 -->
<g id="edge1" class="edge">
<title>1&#45;&gt;0</title>
<path fill="none" stroke="#c0c0c0" stroke-width="2" d="M457.5,-71.8314C457.5,-64.131 457.5,-54.9743 457.5,-46.4166"/>
<polygon fill="#c0c0c0" stroke="#c0c0c0" stroke-width="2" points="461.0001,-46.4132 457.5,-36.4133 454.0001,-46.4133 461.0001,-46.4132"/>
</g>
<!-- 2 -->
<g id="node3" class="node">
<title>2</title>
<path fill="none" stroke="#d8ac56" stroke-width="2" stroke-dasharray="5,2" d="M498.5,-180C498.5,-180 416.5,-180 416.5,-180 410.5,-180 404.5,-174 404.5,-168 404.5,-168 404.5,-156 404.5,-156 404.5,-150 410.5,-144 416.5,-144 416.5,-144 498.5,-144 498.5,-144 504.5,-144 510.5,-150 510.5,-156 510.5,-156 510.5,-168 510.5,-168 510.5,-174 504.5,-180 498.5,-180"/>
<text text-anchor="middle" x="457.5" y="-159.5" font-family="sans" font-size="10.00" fill="#000000">get_plot_files_rule</text>
</g>
<!-- 2&#45;&gt;1 -->
<g id="edge2" class="edge">
<title>2&#45;&gt;1</title>
<path fill="none" stroke="#c0c0c0" stroke-width="2" d="M457.5,-143.8314C457.5,-136.131 457.5,-126.9743 457.5,-118.4166"/>
<polygon fill="#c0c0c0" stroke="#c0c0c0" stroke-width="2" points="461.0001,-118.4132 457.5,-108.4133 454.0001,-118.4133 461.0001,-118.4132"/>
</g>
<!-- 3 -->
<g id="node4" class="node">
<title>3</title>
<path fill="none" stroke="#59d856" stroke-width="2" stroke-dasharray="5,2" d="M335,-252C335,-252 300,-252 300,-252 294,-252 288,-246 288,-240 288,-240 288,-228 288,-228 288,-222 294,-216 300,-216 300,-216 335,-216 335,-216 341,-216 347,-222 347,-228 347,-228 347,-240 347,-240 347,-246 341,-252 335,-252"/>
<text text-anchor="middle" x="317.5" y="-231.5" font-family="sans" font-size="10.00" fill="#000000">vcf_filter</text>
</g>
<!-- 3&#45;&gt;2 -->
<g id="edge3" class="edge">
<title>3&#45;&gt;2</title>
<path fill="none" stroke="#c0c0c0" stroke-width="2" d="M347.1904,-218.7307C366.434,-208.834 391.843,-195.7665 413.4238,-184.6678"/>
<polygon fill="#c0c0c0" stroke="#c0c0c0" stroke-width="2" points="415.1171,-187.7327 422.4092,-180.0467 411.9156,-181.5077 415.1171,-187.7327"/>
</g>
<!-- 4 -->
<g id="node5" class="node">
<title>4</title>
<path fill="none" stroke="#afd856" stroke-width="2" stroke-dasharray="5,2" d="M281.5,-324C281.5,-324 225.5,-324 225.5,-324 219.5,-324 213.5,-318 213.5,-312 213.5,-312 213.5,-300 213.5,-300 213.5,-294 219.5,-288 225.5,-288 225.5,-288 281.5,-288 281.5,-288 287.5,-288 293.5,-294 293.5,-300 293.5,-300 293.5,-312 293.5,-312 293.5,-318 287.5,-324 281.5,-324"/>
<text text-anchor="middle" x="253.5" y="-303.5" font-family="sans" font-size="10.00" fill="#000000">vcf_annotate</text>
</g>
<!-- 4&#45;&gt;3 -->
<g id="edge6" class="edge">
<title>4&#45;&gt;3</title>
<path fill="none" stroke="#c0c0c0" stroke-width="2" d="M269.6499,-287.8314C277.1717,-279.3694 286.2565,-269.1489 294.4804,-259.8971"/>
<polygon fill="#c0c0c0" stroke="#c0c0c0" stroke-width="2" points="297.1049,-262.2127 301.1327,-252.4133 291.873,-257.5621 297.1049,-262.2127"/>
</g>
<!-- 5 -->
<g id="node6" class="node">
<title>5</title>
<path fill="none" stroke="#56d8a9" stroke-width="2" stroke-dasharray="5,2" d="M281,-396C281,-396 12,-396 12,-396 6,-396 0,-390 0,-384 0,-384 0,-372 0,-372 0,-366 6,-360 12,-360 12,-360 281,-360 281,-360 287,-360 293,-366 293,-372 293,-372 293,-384 293,-384 293,-390 287,-396 281,-396"/>
<text text-anchor="middle" x="146.5" y="-381" font-family="sans" font-size="10.00" fill="#000000">bcftools_view</text>
<text text-anchor="middle" x="146.5" y="-370" font-family="sans" font-size="10.00" fill="#000000">sample: GM18876&#45;ONT&#45;hg38&#45;R9&#45;LSK110&#45;guppy&#45;sup&#45;5mC</text>
</g>
<!-- 5&#45;&gt;4 -->
<g id="edge7" class="edge">
<title>5&#45;&gt;4</title>
<path fill="none" stroke="#c0c0c0" stroke-width="2" d="M173.5006,-359.8314C186.9331,-350.7927 203.3473,-339.7476 217.8039,-330.0198"/>
<polygon fill="#c0c0c0" stroke="#c0c0c0" stroke-width="2" points="220.1654,-332.6494 226.508,-324.1628 216.2575,-326.8418 220.1654,-332.6494"/>
</g>
<!-- 6 -->
<g id="node7" class="node">
<title>6</title>
<path fill="none" stroke="#59d856" stroke-width="2" stroke-dasharray="5,2" d="M475,-252C475,-252 440,-252 440,-252 434,-252 428,-246 428,-240 428,-240 428,-228 428,-228 428,-222 434,-216 440,-216 440,-216 475,-216 475,-216 481,-216 487,-222 487,-228 487,-228 487,-240 487,-240 487,-246 481,-252 475,-252"/>
<text text-anchor="middle" x="457.5" y="-231.5" font-family="sans" font-size="10.00" fill="#000000">vcf_filter</text>
</g>
<!-- 6&#45;&gt;2 -->
<g id="edge4" class="edge">
<title>6&#45;&gt;2</title>
<path fill="none" stroke="#c0c0c0" stroke-width="2" d="M457.5,-215.8314C457.5,-208.131 457.5,-198.9743 457.5,-190.4166"/>
<polygon fill="#c0c0c0" stroke="#c0c0c0" stroke-width="2" points="461.0001,-190.4132 457.5,-180.4133 454.0001,-190.4133 461.0001,-190.4132"/>
</g>
<!-- 7 -->
<g id="node8" class="node">
<title>7</title>
<path fill="none" stroke="#afd856" stroke-width="2" stroke-dasharray="5,2" d="M485.5,-324C485.5,-324 429.5,-324 429.5,-324 423.5,-324 417.5,-318 417.5,-312 417.5,-312 417.5,-300 417.5,-300 417.5,-294 423.5,-288 429.5,-288 429.5,-288 485.5,-288 485.5,-288 491.5,-288 497.5,-294 497.5,-300 497.5,-300 497.5,-312 497.5,-312 497.5,-318 491.5,-324 485.5,-324"/>
<text text-anchor="middle" x="457.5" y="-303.5" font-family="sans" font-size="10.00" fill="#000000">vcf_annotate</text>
</g>
<!-- 7&#45;&gt;6 -->
<g id="edge8" class="edge">
<title>7&#45;&gt;6</title>
<path fill="none" stroke="#c0c0c0" stroke-width="2" d="M457.5,-287.8314C457.5,-280.131 457.5,-270.9743 457.5,-262.4166"/>
<polygon fill="#c0c0c0" stroke="#c0c0c0" stroke-width="2" points="461.0001,-262.4132 457.5,-252.4133 454.0001,-262.4133 461.0001,-262.4132"/>
</g>
<!-- 8 -->
<g id="node9" class="node">
<title>8</title>
<path fill="none" stroke="#56d8a9" stroke-width="2" stroke-dasharray="5,2" d="M592,-396C592,-396 323,-396 323,-396 317,-396 311,-390 311,-384 311,-384 311,-372 311,-372 311,-366 317,-360 323,-360 323,-360 592,-360 592,-360 598,-360 604,-366 604,-372 604,-372 604,-384 604,-384 604,-390 598,-396 592,-396"/>
<text text-anchor="middle" x="457.5" y="-381" font-family="sans" font-size="10.00" fill="#000000">bcftools_view</text>
<text text-anchor="middle" x="457.5" y="-370" font-family="sans" font-size="10.00" fill="#000000">sample: HG02409&#45;ONT&#45;hg38&#45;R9&#45;LSK110&#45;guppy&#45;sup&#45;5mC</text>
</g>
<!-- 8&#45;&gt;7 -->
<g id="edge9" class="edge">
<title>8&#45;&gt;7</title>
<path fill="none" stroke="#c0c0c0" stroke-width="2" d="M457.5,-359.8314C457.5,-352.131 457.5,-342.9743 457.5,-334.4166"/>
<polygon fill="#c0c0c0" stroke="#c0c0c0" stroke-width="2" points="461.0001,-334.4132 457.5,-324.4133 454.0001,-334.4133 461.0001,-334.4132"/>
</g>
<!-- 9 -->
<g id="node10" class="node">
<title>9</title>
<path fill="none" stroke="#59d856" stroke-width="2" stroke-dasharray="5,2" d="M621,-252C621,-252 586,-252 586,-252 580,-252 574,-246 574,-240 574,-240 574,-228 574,-228 574,-222 580,-216 586,-216 586,-216 621,-216 621,-216 627,-216 633,-222 633,-228 633,-228 633,-240 633,-240 633,-246 627,-252 621,-252"/>
<text text-anchor="middle" x="603.5" y="-231.5" font-family="sans" font-size="10.00" fill="#000000">vcf_filter</text>
</g>
<!-- 9&#45;&gt;2 -->
<g id="edge5" class="edge">
<title>9&#45;&gt;2</title>
<path fill="none" stroke="#c0c0c0" stroke-width="2" d="M573.9547,-219.4297C553.7423,-209.4619 526.5416,-196.0479 503.5118,-184.6907"/>
<polygon fill="#c0c0c0" stroke="#c0c0c0" stroke-width="2" points="504.7762,-181.4119 494.2595,-180.128 501.6802,-187.69 504.7762,-181.4119"/>
</g>
<!-- 10 -->
<g id="node11" class="node">
<title>10</title>
<path fill="none" stroke="#afd856" stroke-width="2" stroke-dasharray="5,2" d="M701.5,-324C701.5,-324 645.5,-324 645.5,-324 639.5,-324 633.5,-318 633.5,-312 633.5,-312 633.5,-300 633.5,-300 633.5,-294 639.5,-288 645.5,-288 645.5,-288 701.5,-288 701.5,-288 707.5,-288 713.5,-294 713.5,-300 713.5,-300 713.5,-312 713.5,-312 713.5,-318 707.5,-324 701.5,-324"/>
<text text-anchor="middle" x="673.5" y="-303.5" font-family="sans" font-size="10.00" fill="#000000">vcf_annotate</text>
</g>
<!-- 10&#45;&gt;9 -->
<g id="edge10" class="edge">
<title>10&#45;&gt;9</title>
<path fill="none" stroke="#c0c0c0" stroke-width="2" d="M655.836,-287.8314C647.5268,-279.2848 637.4736,-268.9443 628.4082,-259.6198"/>
<polygon fill="#c0c0c0" stroke="#c0c0c0" stroke-width="2" points="630.8821,-257.1435 621.4018,-252.4133 625.8631,-262.023 630.8821,-257.1435"/>
</g>
<!-- 11 -->
<g id="node12" class="node">
<title>11</title>
<path fill="none" stroke="#56d8a9" stroke-width="2" stroke-dasharray="5,2" d="M950.5,-396C950.5,-396 634.5,-396 634.5,-396 628.5,-396 622.5,-390 622.5,-384 622.5,-384 622.5,-372 622.5,-372 622.5,-366 628.5,-360 634.5,-360 634.5,-360 950.5,-360 950.5,-360 956.5,-360 962.5,-366 962.5,-372 962.5,-372 962.5,-384 962.5,-384 962.5,-390 956.5,-396 950.5,-396"/>
<text text-anchor="middle" x="792.5" y="-381" font-family="sans" font-size="10.00" fill="#000000">bcftools_view</text>
<text text-anchor="middle" x="792.5" y="-370" font-family="sans" font-size="10.00" fill="#000000">sample: HG03861&#45;ONT&#45;hg38&#45;R9&#45;LSK110&#45;guppy&#45;sup&#45;5hmc_5mc_cg</text>
</g>
<!-- 11&#45;&gt;10 -->
<g id="edge11" class="edge">
<title>11&#45;&gt;10</title>
<path fill="none" stroke="#c0c0c0" stroke-width="2" d="M762.4713,-359.8314C747.2504,-350.6221 728.5872,-339.3301 712.2917,-329.4706"/>
<polygon fill="#c0c0c0" stroke="#c0c0c0" stroke-width="2" points="713.8868,-326.345 703.5191,-324.1628 710.2631,-332.3341 713.8868,-326.345"/>
</g>
</g>
</svg>
